<mxfile host="app.diagrams.net" modified="2024-03-12T07:28:02.234Z" agent="Mozilla/5.0 (Windows NT 10.0; Win64; x64) AppleWebKit/537.36 (KHTML, like Gecko) Chrome/122.0.0.0 Safari/537.36" etag="rIjuUBm1LswwgP_d6Xlf" version="24.0.2" type="device">
  <diagram name="Page-1" id="2YBvvXClWsGukQMizWep">
    <mxGraphModel dx="1050" dy="564" grid="1" gridSize="10" guides="1" tooltips="1" connect="1" arrows="1" fold="1" page="1" pageScale="1" pageWidth="850" pageHeight="1100" math="0" shadow="0">
      <root>
        <mxCell id="0" />
        <mxCell id="1" parent="0" />
        <mxCell id="1EMApQXbk5Jgve2hEZXv-1" value="Actor" style="shape=umlActor;verticalLabelPosition=bottom;verticalAlign=top;html=1;outlineConnect=0;" vertex="1" parent="1">
          <mxGeometry x="120" y="50" width="30" height="60" as="geometry" />
        </mxCell>
        <mxCell id="1EMApQXbk5Jgve2hEZXv-4" value="Diagram(x)" style="html=1;verticalAlign=bottom;startArrow=oval;endArrow=block;startSize=8;curved=0;rounded=0;entryX=0;entryY=0;entryDx=0;entryDy=5;" edge="1" target="1EMApQXbk5Jgve2hEZXv-3" parent="1">
          <mxGeometry relative="1" as="geometry">
            <mxPoint x="60" y="165" as="sourcePoint" />
          </mxGeometry>
        </mxCell>
        <mxCell id="1EMApQXbk5Jgve2hEZXv-5" value="" style="swimlane;startSize=0;" vertex="1" parent="1">
          <mxGeometry x="205" y="170" width="440" height="330" as="geometry" />
        </mxCell>
        <mxCell id="1EMApQXbk5Jgve2hEZXv-6" value="Alt" style="text;html=1;align=center;verticalAlign=middle;whiteSpace=wrap;rounded=0;" vertex="1" parent="1EMApQXbk5Jgve2hEZXv-5">
          <mxGeometry x="-10" width="60" height="30" as="geometry" />
        </mxCell>
        <mxCell id="1EMApQXbk5Jgve2hEZXv-12" value="" style="html=1;points=[[0,0,0,0,5],[0,1,0,0,-5],[1,0,0,0,5],[1,1,0,0,-5]];perimeter=orthogonalPerimeter;outlineConnect=0;targetShapes=umlLifeline;portConstraint=eastwest;newEdgeStyle={&quot;curved&quot;:0,&quot;rounded&quot;:0};" vertex="1" parent="1EMApQXbk5Jgve2hEZXv-5">
          <mxGeometry x="220" y="60" width="20" height="80" as="geometry" />
        </mxCell>
        <mxCell id="1EMApQXbk5Jgve2hEZXv-14" value="" style="html=1;points=[[0,0,0,0,5],[0,1,0,0,-5],[1,0,0,0,5],[1,1,0,0,-5]];perimeter=orthogonalPerimeter;outlineConnect=0;targetShapes=umlLifeline;portConstraint=eastwest;newEdgeStyle={&quot;curved&quot;:0,&quot;rounded&quot;:0};" vertex="1" parent="1EMApQXbk5Jgve2hEZXv-5">
          <mxGeometry x="380" y="195" width="20" height="80" as="geometry" />
        </mxCell>
        <mxCell id="1EMApQXbk5Jgve2hEZXv-23" value="[x&amp;lt;10]" style="text;html=1;align=center;verticalAlign=middle;whiteSpace=wrap;rounded=0;" vertex="1" parent="1EMApQXbk5Jgve2hEZXv-5">
          <mxGeometry x="50" y="10" width="60" height="30" as="geometry" />
        </mxCell>
        <mxCell id="1EMApQXbk5Jgve2hEZXv-24" value="[else]" style="text;html=1;align=center;verticalAlign=middle;whiteSpace=wrap;rounded=0;" vertex="1" parent="1EMApQXbk5Jgve2hEZXv-5">
          <mxGeometry x="50" y="170" width="60" height="30" as="geometry" />
        </mxCell>
        <mxCell id="1EMApQXbk5Jgve2hEZXv-7" value="a: A" style="rounded=0;whiteSpace=wrap;html=1;" vertex="1" parent="1">
          <mxGeometry x="200" y="70" width="120" height="60" as="geometry" />
        </mxCell>
        <mxCell id="1EMApQXbk5Jgve2hEZXv-8" value="b: B" style="rounded=0;whiteSpace=wrap;html=1;" vertex="1" parent="1">
          <mxGeometry x="380" y="70" width="120" height="60" as="geometry" />
        </mxCell>
        <mxCell id="1EMApQXbk5Jgve2hEZXv-9" value="c: C" style="rounded=0;whiteSpace=wrap;html=1;" vertex="1" parent="1">
          <mxGeometry x="530" y="70" width="120" height="60" as="geometry" />
        </mxCell>
        <mxCell id="1EMApQXbk5Jgve2hEZXv-11" value="Wykonaj(x)" style="html=1;verticalAlign=bottom;startArrow=oval;endArrow=block;startSize=8;curved=0;rounded=0;entryX=0;entryY=0;entryDx=0;entryDy=5;" edge="1" target="1EMApQXbk5Jgve2hEZXv-10" parent="1" source="1EMApQXbk5Jgve2hEZXv-3">
          <mxGeometry relative="1" as="geometry">
            <mxPoint x="170" y="255" as="sourcePoint" />
          </mxGeometry>
        </mxCell>
        <mxCell id="1EMApQXbk5Jgve2hEZXv-17" value="" style="endArrow=none;dashed=1;html=1;rounded=0;exitX=0.5;exitY=1;exitDx=0;exitDy=0;entryX=0.116;entryY=1.006;entryDx=0;entryDy=0;entryPerimeter=0;" edge="1" parent="1" source="1EMApQXbk5Jgve2hEZXv-7" target="1EMApQXbk5Jgve2hEZXv-5">
          <mxGeometry width="50" height="50" relative="1" as="geometry">
            <mxPoint x="260" y="130" as="sourcePoint" />
            <mxPoint x="257" y="501" as="targetPoint" />
          </mxGeometry>
        </mxCell>
        <mxCell id="1EMApQXbk5Jgve2hEZXv-10" value="" style="html=1;points=[[0,0,0,0,5],[0,1,0,0,-5],[1,0,0,0,5],[1,1,0,0,-5]];perimeter=orthogonalPerimeter;outlineConnect=0;targetShapes=umlLifeline;portConstraint=eastwest;newEdgeStyle={&quot;curved&quot;:0,&quot;rounded&quot;:0};" vertex="1" parent="1">
          <mxGeometry x="255" y="215" width="15" height="230" as="geometry" />
        </mxCell>
        <mxCell id="1EMApQXbk5Jgve2hEZXv-13" value="Oblicz(x)" style="html=1;verticalAlign=bottom;startArrow=oval;endArrow=block;startSize=8;curved=0;rounded=0;entryX=0;entryY=0;entryDx=0;entryDy=5;" edge="1" target="1EMApQXbk5Jgve2hEZXv-12" parent="1" source="1EMApQXbk5Jgve2hEZXv-10">
          <mxGeometry relative="1" as="geometry">
            <mxPoint x="370" y="230" as="sourcePoint" />
          </mxGeometry>
        </mxCell>
        <mxCell id="1EMApQXbk5Jgve2hEZXv-15" value="Oblicz(x)" style="html=1;verticalAlign=bottom;startArrow=oval;endArrow=block;startSize=8;curved=0;rounded=0;entryX=0;entryY=0;entryDx=0;entryDy=5;" edge="1" target="1EMApQXbk5Jgve2hEZXv-14" parent="1" source="1EMApQXbk5Jgve2hEZXv-10">
          <mxGeometry relative="1" as="geometry">
            <mxPoint x="530" y="370" as="sourcePoint" />
          </mxGeometry>
        </mxCell>
        <mxCell id="1EMApQXbk5Jgve2hEZXv-18" value="" style="endArrow=none;dashed=1;html=1;dashPattern=1 3;strokeWidth=2;rounded=0;" edge="1" parent="1" source="1EMApQXbk5Jgve2hEZXv-3">
          <mxGeometry width="50" height="50" relative="1" as="geometry">
            <mxPoint x="130" y="140" as="sourcePoint" />
            <mxPoint x="130" y="530.7999877929688" as="targetPoint" />
          </mxGeometry>
        </mxCell>
        <mxCell id="1EMApQXbk5Jgve2hEZXv-19" value="" style="endArrow=none;dashed=1;html=1;dashPattern=1 3;strokeWidth=2;rounded=0;" edge="1" parent="1" target="1EMApQXbk5Jgve2hEZXv-3">
          <mxGeometry width="50" height="50" relative="1" as="geometry">
            <mxPoint x="130" y="140" as="sourcePoint" />
            <mxPoint x="130" y="530.7999877929688" as="targetPoint" />
          </mxGeometry>
        </mxCell>
        <mxCell id="1EMApQXbk5Jgve2hEZXv-3" value="" style="html=1;points=[[0,0,0,0,5],[0,1,0,0,-5],[1,0,0,0,5],[1,1,0,0,-5]];perimeter=orthogonalPerimeter;outlineConnect=0;targetShapes=umlLifeline;portConstraint=eastwest;newEdgeStyle={&quot;curved&quot;:0,&quot;rounded&quot;:0};" vertex="1" parent="1">
          <mxGeometry x="120" y="160" width="20" height="360" as="geometry" />
        </mxCell>
        <mxCell id="1EMApQXbk5Jgve2hEZXv-20" value="" style="endArrow=none;dashed=1;html=1;rounded=0;exitX=0.5;exitY=1;exitDx=0;exitDy=0;" edge="1" parent="1" source="1EMApQXbk5Jgve2hEZXv-8">
          <mxGeometry width="50" height="50" relative="1" as="geometry">
            <mxPoint x="400" y="320" as="sourcePoint" />
            <mxPoint x="440" y="510" as="targetPoint" />
          </mxGeometry>
        </mxCell>
        <mxCell id="1EMApQXbk5Jgve2hEZXv-21" value="" style="endArrow=none;dashed=1;html=1;rounded=0;exitX=0.56;exitY=1.067;exitDx=0;exitDy=0;entryX=0.884;entryY=0.999;entryDx=0;entryDy=0;entryPerimeter=0;exitPerimeter=0;" edge="1" parent="1" source="1EMApQXbk5Jgve2hEZXv-9" target="1EMApQXbk5Jgve2hEZXv-5">
          <mxGeometry width="50" height="50" relative="1" as="geometry">
            <mxPoint x="400" y="320" as="sourcePoint" />
            <mxPoint x="450" y="270" as="targetPoint" />
          </mxGeometry>
        </mxCell>
        <mxCell id="1EMApQXbk5Jgve2hEZXv-22" value="" style="endArrow=none;dashed=1;html=1;rounded=0;exitX=0;exitY=0.5;exitDx=0;exitDy=0;entryX=1;entryY=0.5;entryDx=0;entryDy=0;" edge="1" parent="1" source="1EMApQXbk5Jgve2hEZXv-5" target="1EMApQXbk5Jgve2hEZXv-5">
          <mxGeometry width="50" height="50" relative="1" as="geometry">
            <mxPoint x="400" y="320" as="sourcePoint" />
            <mxPoint x="450" y="270" as="targetPoint" />
          </mxGeometry>
        </mxCell>
      </root>
    </mxGraphModel>
  </diagram>
</mxfile>
